<svg width="32" height="32" fill="none" xmlns="http://www.w3.org/2000/svg"><path fill-rule="evenodd" clip-rule="evenodd" d="M22.126 19.526a1.25 1.25 0 011.532-.882c1.873.504 3.56 1.337 4.805 2.442 1.246 1.106 2.12 2.559 2.12 4.247 0 .742-.32 1.381-.733 1.885-.412.503-.964.934-1.576 1.299-1.225.732-2.873 1.309-4.702 1.664a1.25 1.25 0 01-.477-2.454c1.637-.318 2.99-.815 3.898-1.357.454-.271.752-.527.924-.736a.959.959 0 00.147-.23c.02-.047.02-.069.02-.07 0-.768-.393-1.59-1.28-2.378-.89-.79-2.202-1.47-3.795-1.898a1.25 1.25 0 01-.883-1.532z" fill="#10375C"/><path fill-rule="evenodd" clip-rule="evenodd" d="M6.015 22.131c-1.432.93-2.098 2.084-2.098 3.202 0 .065.032.268.352.595.316.324.836.682 1.577 1.015 1.477.665 3.63 1.14 6.154 1.14s4.677-.475 6.154-1.14c.74-.333 1.26-.691 1.577-1.015.32-.327.352-.53.352-.595 0-1.118-.666-2.271-2.098-3.202-1.427-.928-3.513-1.548-5.985-1.548-2.472 0-4.558.62-5.985 1.548zm-1.363-2.096c1.906-1.238 4.486-1.952 7.348-1.952s5.442.714 7.348 1.952c1.902 1.237 3.235 3.084 3.235 5.298 0 .936-.467 1.732-1.064 2.343-.6.614-1.414 1.13-2.34 1.547-1.856.836-4.37 1.36-7.179 1.36s-5.323-.524-7.18-1.36c-.925-.416-1.738-.933-2.339-1.547-.597-.61-1.064-1.407-1.064-2.343 0-2.214 1.333-4.061 3.235-5.298zM18.75 3.333c0-.69.56-1.25 1.25-1.25a7.25 7.25 0 110 14.5 1.25 1.25 0 010-2.5 4.75 4.75 0 000-9.5c-.69 0-1.25-.56-1.25-1.25z" fill="#10375C"/><path fill-rule="evenodd" clip-rule="evenodd" d="M12 4.583a4.75 4.75 0 100 9.5 4.75 4.75 0 000-9.5zm-7.25 4.75a7.25 7.25 0 1114.5 0 7.25 7.25 0 01-14.5 0z" fill="#10375C"/></svg>